PathFileType	4	(X/Y/Z)	RBDS016\RBDS016runT45.trc
DataRate	CameraRate	NumFrames	NumMarkers	Units	OrigDataRate	OrigDataStartFrame	OrigNumFrames
150.000000	150.000000	4	33	mm	150.000000	0	4500
Frame#	Time	L.ASIS			L.Heel.Bottom			L.Heel.Lateral			L.Heel.Top			L.Iliac.Crest			L.MT1			L.MT5			L.PSIS			L.Shank.Bottom.Lateral			L.Shank.Bottom.Medial			L.Shank.Top.Lateral			L.Shank.Top.Medial			L.Thigh.Bottom.Lateral			L.Thigh.Bottom.Medial			L.Thigh.Top.Lateral			L.Thigh.Top.Medial			R.ASIS			R.ASY			R.Heel.Bottom			R.Heel.Lateral			R.Heel.Top			R.Iliac.Crest			R.MT1			R.MT5			R.PSIS			R.Shank.Bottom.Lateral			R.Shank.Bottom.Medial			R.Shank.Top.Lateral			R.Shank.Top.Medial			R.Thigh.Bottom.Lateral			R.Thigh.Bottom.Medial			R.Thigh.Top.Lateral			R.Thigh.Top.Medial			
		X1	Y1	Z1	X2	Y2	Z2	X3	Y3	Z3	X4	Y4	Z4	X5	Y5	Z5	X6	Y6	Z6	X7	Y7	Z7	X8	Y8	Z8	X9	Y9	Z9	X10	Y10	Z10	X11	Y11	Z11	X12	Y12	Z12	X13	Y13	Z13	X14	Y14	Z14	X15	Y15	Z15	X16	Y16	Z16	X17	Y17	Z17	X18	Y18	Z18	X19	Y19	Z19	X20	Y20	Z20	X21	Y21	Z21	X22	Y22	Z22	X23	Y23	Z23	X24	Y24	Z24	X25	Y25	Z25	X26	Y26	Z26	X27	Y27	Z27	X28	Y28	Z28	X29	Y29	Z29	X30	Y30	Z30	X31	Y31	Z31	X32	Y32	Z32	X33	Y33	Z33	

1	0	2400.162898762486	891.5609981967157	922.570477695776	1814.326087308373	156.074725527558	1043.261103263486	1836.184276367315	153.796502680908	995.1443628834813	1847.156361666206	187.7276338068568	1032.917855735478	2325.073945524568	968.1966444477905	875.4345689495535	2001.63983813922	44.76409699403295	1037.226126588394	1943.230810822839	54.43369204291251	945.7182670838469	2225.063514037446	943.4410853461847	1009.430703735234	1928.046248930512	241.1491811150467	964.8151201196413	1916.962927822647	259.3635817116362	1016.178677998511	1965.147614002809	310.969462389109	949.5032357130634	1956.766672333704	328.207773116198	999.8637428103086	2170.39544059535	563.6679303781975	894.5964838301641	2119.144188417463	593.4506658700253	937.3616048361752	2210.329088433671	663.6214207694851	872.7106317674087	2161.441936568363	691.8850061325386	915.0908226041832	2419.825175929145	918.0034374773513	1148.162009606809	2431.241301451712	189.3545693575442	1139.923830552592	2265.190085744291	251.3914962533627	1063.20459970971	2286.79554347593	263.2788544884363	1112.119955031653	2304.647842753252	284.6440042454715	1065.448263991022	2344.48759911603	979.2800569519769	1203.775018315704	2443.346988990142	137.7195915988119	1111.523595328987	2381.869465186475	167.2487668085531	1197.192409647557	2233.791942565809	941.259558051522	1108.205839809954	2384.383266634455	327.2821362105868	1149.410731384966	2364.276918859125	351.6966204025206	1109.015808297755	2428.442120112268	397.9551561146316	1166.973809957645	2404.668457410828	420.004638327714	1124.860865403806	2538.13804347338	623.8168087404983	1202.103496839713	2497.544832478398	585.8611788527468	1155.034197859505	2451.301796708738	688.7347696015421	1223.992917593938	2412.549773302958	651.0479798934206	1181.847567039159	
2	0.006666666666666667	2402.790057826744	892.5479544232008	923.3677919653974	1801.553794853347	174.7483844320043	1041.009684522138	1821.884422426243	170.2632102521005	992.5543317941816	1836.491258942256	203.2138614077309	1029.482535357279	2335.381970754572	969.767615148559	876.8226286740302	1977.944734064726	49.13444466978712	1034.850285389337	1919.244414091487	61.44493561691241	944.2588261421167	2228.122733131704	947.4048849323019	1007.932977109501	1914.438187024031	252.6175493835437	961.8062192276557	1904.303245640943	269.5536060074211	1013.733410772897	1952.050169211458	322.5332979055781	947.6632290699525	1944.400037726901	338.619568531584	998.4298570264228	2161.798423238132	574.08628870342	894.5871219801363	2112.588249659536	605.5351191914934	938.209322567668	2205.418986538925	672.2110361952357	872.9038443468673	2158.682992301042	701.9814510184611	916.2077846839009	2421.33430326401	923.1345340273806	1147.076496434245	2464.252048838357	182.4838006294912	1139.28971183478	2294.697684511505	228.5840627061205	1062.317956195199	2314.698653269559	242.1129496206791	1111.267144891987	2330.156122203238	265.2612438089045	1064.92956339426	2346.917319655296	986.5124905840287	1202.994988495892	2481.228800631141	132.7460362094776	1110.861046834414	2417.098622366048	155.9319676707368	1196.58544954373	2236.301572530362	946.4212269552451	1107.201723974362	2405.299977115562	315.034499980018	1148.19746506373	2384.282769358516	337.3582193394369	1107.105736495721	2443.378957694085	388.5621595610421	1165.310597428366	2418.993189893034	408.2628579534027	1122.557289183517	2539.348933362621	627.625174106381	1201.13111162058	2497.583516339496	588.6527223583806	1156.081350515089	2452.948512180626	692.9670614579367	1223.666021596204	2413.213944056434	654.5349811482148	1183.330960457193	
3	0.01333333333333333	2405.356731065833	893.5723447265882	924.125477231033	1788.861841126519	193.4818393935964	1038.921603427541	1807.713690592643	186.9128491689443	990.1342098132546	1825.822557898262	218.8408393112346	1026.264536365471	2345.400459273953	971.3358263407255	878.1727240982048	1954.462647657966	54.07266088503124	1032.519571286411	1895.559154155902	69.06609795942117	942.8245085479849	2231.09331312925	951.3594285670001	1006.455097841689	1901.041879871114	264.2675907637645	958.9761871581876	1891.849699527368	279.9990823658761	1011.43859125228	1939.311114624326	334.149343590325	945.932894667296	1932.395225426591	349.1451159658682	997.0845117122408	2153.665605916171	584.1295848171164	894.58470594553	2106.429772005406	617.1024609915264	939.0836175356102	2200.764167933718	680.5356568453931	873.14258425036	2156.112150446716	711.6830530077018	917.392690857362	2422.74041051289	928.065506079416	1146.033944253848	2497.000369834408	175.9767435385395	1138.472157669097	2324.252453541864	206.1869558917411	1061.489603984352	2342.719727465651	221.2731604650687	1110.468965707296	2355.689140200729	246.1505578702014	1064.491378690046	2349.233070496897	993.5601379016468	1202.167349900596	2518.683189221023	128.2899384350411	1109.899918056614	2452.298904957157	145.0227829474331	1195.766019410933	2238.720662569383	951.5261336573467	1106.190636154625	2426.163813316755	302.8734133920505	1147.053949639634	2404.212861030192	323.122912972793	1105.335044245308	2458.226310605812	379.0947059093909	1163.796593754994	2433.212817118876	396.470756696002	1120.455194881515	2540.24451473977	631.0247353645274	1200.246346610179	2497.3175778924	591.1333731230627	1157.129321081637	2454.353386839459	696.8808298901004	1223.364880643615	2413.643184804102	657.7949951897019	1184.738908521663	
4	0.02	2407.808339922937	894.6782355209291	924.8120693758485	1776.292368584088	212.3813440793392	1037.126965189103	1793.761601154303	203.9461224975436	988.0251313059257	1815.119870832094	234.7774605475696	1023.454955627902	2354.839015153898	972.9374259599902	879.454625152927	1931.341215222559	60.11486687650235	1030.304047405594	1872.411282325765	77.858102073249	941.4525800250622	2233.888340347174	955.3183500680808	1005.013049351697	1888.026388526794	276.2840303411479	956.480078325388	1879.766092571174	290.9618742926555	1009.421612716222	1927.233668786956	345.8826780037883	944.4025924778376	1921.058719049839	359.9154536744163	995.8971779737678	2146.42854157578	593.4491071923181	894.5910147629011	2101.036248078785	627.6853788682101	939.9965362355254	2196.611974562817	688.3443221943493	873.4536039287972	2153.908628073945	720.6305262401419	918.6818039537525	2423.946503295293	932.6123778688201	1145.070805722054	2529.262760958602	170.235761741776	1137.318262567403	2353.966215678782	184.5884311780024	1060.770238742335	2371.026448985775	201.0783879042843	1109.773629257998	2381.314773378206	227.568069102561	1064.208939321487	2351.326089412955	1000.23797645778	1201.253828877024	2555.33375562476	124.9078212259954	1108.387482629624	2487.480721926022	134.9738642579936	1194.548972987142	2240.967477593302	956.527797641637	1105.16444758314	2446.94732548073	290.9228851702971	1146.044545457263	2424.028382864341	309.1232374816596	1103.82178027559	2472.919491461061	369.5225782157401	1162.557501330679	2447.255440800855	384.6156797246196	1118.724149672081	2540.515782366395	633.6446723702277	1199.531125628651	2496.454517760911	593.0327885044212	1158.164797669244	2455.27886488703	700.1903067079905	1223.112989293048	2413.61018131271	660.6331395672221	1185.993729161683	
